<svg xmlns="http://www.w3.org/2000/svg" viewBox="0 0 1024 1024">
  <defs>
    <linearGradient id="paper" x1="0" y1="0" x2="1" y2="1">
      <stop offset="0" stop-color="#fffaf0"/>
      <stop offset="1" stop-color="#f1dfc7"/>
    </linearGradient>
    <linearGradient id="cover" x1="0" y1="0" x2="1" y2="1">
      <stop offset="0" stop-color="#d77a49"/>
      <stop offset="1" stop-color="#9e4229"/>
    </linearGradient>
    <filter id="shadow" x="-30%" y="-30%" width="160%" height="160%">
      <feDropShadow dx="0" dy="26" stdDeviation="28" flood-color="#4d2a1a" flood-opacity=".22"/>
    </filter>
  </defs>
  <rect width="1024" height="1024" rx="226" fill="#f7f0e5"/>
  <circle cx="165" cy="160" r="210" fill="#e9ad82" opacity=".22"/>
  <circle cx="890" cy="860" r="270" fill="#b85b32" opacity=".13"/>
  <g filter="url(#shadow)">
    <path d="M244 177h494c57 0 102 46 102 102v505c0 35-28 63-63 63H278c-52 0-94-42-94-94V237c0-33 27-60 60-60Z" fill="url(#cover)"/>
    <path d="M302 219h450c25 0 46 21 46 46v500c0 22-18 40-40 40H302c-40 0-72-32-72-72V291c0-40 32-72 72-72Z" fill="url(#paper)"/>
    <path d="M230 705c18-28 47-42 87-42h481v102c0 22-18 40-40 40H302c-40 0-72-32-72-72v-28Z" fill="#fffdf8"/>
    <path d="M302 219h38v444h-23c-40 0-69 14-87 42V291c0-40 32-72 72-72Z" fill="#ead2b5"/>
  </g>
  <g fill="none" stroke="#b85b32" stroke-linecap="round">
    <path d="M417 382h248" stroke-width="34"/>
    <path d="M417 489h300" stroke-width="34" opacity=".78"/>
    <path d="M417 596h190" stroke-width="34" opacity=".56"/>
  </g>
  <circle cx="713" cy="615" r="92" fill="#2f6f62"/>
  <path d="m670 617 29 29 58-68" fill="none" stroke="#fff" stroke-width="24" stroke-linecap="round" stroke-linejoin="round"/>
</svg>
